HIERARCHY
ROOT hip
{
  OFFSET 0.00112043 5.09927 -9.65472
  CHANNELS 6 Xposition Yposition Zposition Zrotation Xrotation Yrotation
  JOINT abdomen
  {
    OFFSET 0 -1.186 -1.5018
    CHANNELS 3 Zrotation Xrotation Yrotation
    JOINT abdomen2
    {
      OFFSET 0 9.964 0.2134
      CHANNELS 3 Zrotation Xrotation Yrotation
      JOINT chest
      {
        OFFSET 0 13.134 -3.2573
        CHANNELS 3 Zrotation Xrotation Yrotation
        JOINT neck
        {
          OFFSET 0 20.686 -1.6905
          CHANNELS 3 Zrotation Xrotation Yrotation
          JOINT head
          {
            OFFSET 0 7.238 -0.1237
            CHANNELS 3 Zrotation Xrotation Yrotation
            End Site
            {
              OFFSET 0 0 0
            }
          }
        }
        JOINT lCollar
        {
          OFFSET 1.7069 20.075 5.0056
          CHANNELS 3 Zrotation Xrotation Yrotation
          JOINT lShldr
          {
            OFFSET 13.6458 -0.047 -4.849
            CHANNELS 3 Zrotation Xrotation Yrotation
            JOINT lForeArm
            {
              OFFSET 28.3255 -0.9759 2.2888
              CHANNELS 3 Zrotation Xrotation Yrotation
              JOINT lHand
              {
                OFFSET 22.1583 -0.53 10.8316
                CHANNELS 3 Zrotation Xrotation Yrotation
                JOINT lThumb1
                {
                  OFFSET 0.786 0.112 2.5817
                  CHANNELS 3 Zrotation Xrotation Yrotation
                  JOINT lThumb2
                  {
                    OFFSET 0.3601 -0.878 4.2331
                    CHANNELS 3 Zrotation Xrotation Yrotation
                    JOINT lThumb2_End
                    {
                      OFFSET 1.8127 -1.216 2.2227
                      CHANNELS 3 Zrotation Xrotation Yrotation
                      End Site
                      {
                        OFFSET 0.0181 -0.0122 0.0222
                      }
                    }
                  }
                }
                JOINT lCarpal1
                {
                  OFFSET 0.9571 1.114 1.7695
                  CHANNELS 3 Zrotation Xrotation Yrotation
                  JOINT lIndex1
                  {
                    OFFSET 4.1246 0.487 4.1451
                    CHANNELS 3 Zrotation Xrotation Yrotation
                    JOINT lIndex2
                    {
                      OFFSET 3.4052 -1.454 2.7682
                      CHANNELS 3 Zrotation Xrotation Yrotation
                      JOINT lIndex2_End
                      {
                        OFFSET 1.4531 -1.795 1.2713
                        CHANNELS 3 Zrotation Xrotation Yrotation
                        End Site
                        {
                          OFFSET 0.0145 -0.0179 0.0127
                        }
                      }
                    }
                  }
                  JOINT lMid1
                  {
                    OFFSET 5.6954 0.21 2.1184
                    CHANNELS 3 Zrotation Xrotation Yrotation
                    JOINT lMid2
                    {
                      OFFSET 3.9766 -1.54 2.3863
                      CHANNELS 3 Zrotation Xrotation Yrotation
                      JOINT lMid2_End
                      {
                        OFFSET 1.4042 -1.926 1.125
                        CHANNELS 3 Zrotation Xrotation Yrotation
                        End Site
                        {
                          OFFSET 0.014 -0.0193 0.0113
                        }
                      }
                    }
                  }
                }
                JOINT lCarpal2
                {
                  OFFSET 2.0956 0.66 -0.3894
                  CHANNELS 3 Zrotation Xrotation Yrotation
                  JOINT lRing1
                  {
                    OFFSET 5.0395 -0.09 2.4971
                    CHANNELS 3 Zrotation Xrotation Yrotation
                    JOINT lRing2
                    {
                      OFFSET 3.7921 -1.552 1.4806
                      CHANNELS 3 Zrotation Xrotation Yrotation
                      JOINT lRing2_End
                      {
                        OFFSET 1.4655 -1.808 0.9609
                        CHANNELS 3 Zrotation Xrotation Yrotation
                        End Site
                        {
                          OFFSET 0.0147 -0.0181 0.0096
                        }
                      }
                    }
                  }
                  JOINT lPinky1
                  {
                    OFFSET 4.9141 -1.269 0.3591
                    CHANNELS 3 Zrotation Xrotation Yrotation
                    JOINT lPinky2
                    {
                      OFFSET 3.1477 -1.685 0.8462
                      CHANNELS 3 Zrotation Xrotation Yrotation
                      JOINT lPinky2_End
                      {
                        OFFSET 0.8055 -1.585 0.7955
                        CHANNELS 3 Zrotation Xrotation Yrotation
                        End Site
                        {
                          OFFSET 0.0081 -0.0158 0.008
                        }
                      }
                    }
                  }
                }
              }
            }
          }
        }
        JOINT rCollar
        {
          OFFSET -1.7069 20.075 5.0056
          CHANNELS 3 Zrotation Xrotation Yrotation
          JOINT rShldr
          {
            OFFSET -13.6458 -0.047 -4.849
            CHANNELS 3 Zrotation Xrotation Yrotation
            JOINT rForeArm
            {
              OFFSET -28.3255 -0.9759 2.2888
              CHANNELS 3 Zrotation Xrotation Yrotation
              JOINT rHand
              {
                OFFSET -22.1583 -0.53 10.8316
                CHANNELS 3 Zrotation Xrotation Yrotation
                JOINT rThumb1
                {
                  OFFSET -0.786 0.112 2.5817
                  CHANNELS 3 Zrotation Xrotation Yrotation
                  JOINT rThumb2
                  {
                    OFFSET -0.3601 -0.878 4.2331
                    CHANNELS 3 Zrotation Xrotation Yrotation
                    JOINT rThumb2_End
                    {
                      OFFSET -1.8127 -1.216 2.2227
                      CHANNELS 3 Zrotation Xrotation Yrotation
                      End Site
                      {
                        OFFSET -0.0181 -0.0122 0.0222
                      }
                    }
                  }
                }
                JOINT rCarpal1
                {
                  OFFSET -0.9571 1.114 1.7695
                  CHANNELS 3 Zrotation Xrotation Yrotation
                  JOINT rIndex1
                  {
                    OFFSET -4.1246 0.487 4.1451
                    CHANNELS 3 Zrotation Xrotation Yrotation
                    JOINT rIndex2
                    {
                      OFFSET -3.4052 -1.454 2.7682
                      CHANNELS 3 Zrotation Xrotation Yrotation
                      JOINT rIndex2_End
                      {
                        OFFSET -1.4531 -1.795 1.2713
                        CHANNELS 3 Zrotation Xrotation Yrotation
                        End Site
                        {
                          OFFSET -0.0145 -0.018 0.0127
                        }
                      }
                    }
                  }
                  JOINT rMid1
                  {
                    OFFSET -5.6954 0.21 2.1184
                    CHANNELS 3 Zrotation Xrotation Yrotation
                    JOINT rMid2
                    {
                      OFFSET -3.9766 -1.54 2.3863
                      CHANNELS 3 Zrotation Xrotation Yrotation
                      JOINT rMid2_End
                      {
                        OFFSET -1.4042 -1.926 1.125
                        CHANNELS 3 Zrotation Xrotation Yrotation
                        End Site
                        {
                          OFFSET -0.014 -0.0193 0.0113
                        }
                      }
                    }
                  }
                }
                JOINT rCarpal2
                {
                  OFFSET -2.0956 0.66 -0.3894
                  CHANNELS 3 Zrotation Xrotation Yrotation
                  JOINT rRing1
                  {
                    OFFSET -5.0395 -0.09 2.4971
                    CHANNELS 3 Zrotation Xrotation Yrotation
                    JOINT rRing2
                    {
                      OFFSET -3.7921 -1.552 1.4806
                      CHANNELS 3 Zrotation Xrotation Yrotation
                      JOINT rRing2_End
                      {
                        OFFSET -1.4655 -1.808 0.9609
                        CHANNELS 3 Zrotation Xrotation Yrotation
                        End Site
                        {
                          OFFSET -0.0147 -0.0181 0.0096
                        }
                      }
                    }
                  }
                  JOINT rPinky1
                  {
                    OFFSET -4.9141 -1.269 0.3592
                    CHANNELS 3 Zrotation Xrotation Yrotation
                    JOINT rPinky2
                    {
                      OFFSET -3.1477 -1.685 0.8462
                      CHANNELS 3 Zrotation Xrotation Yrotation
                      JOINT rPinky2_End
                      {
                        OFFSET -0.8055 -1.585 0.7955
                        CHANNELS 3 Zrotation Xrotation Yrotation
                        End Site
                        {
                          OFFSET -0.0081 -0.0158 0.008
                        }
                      }
                    }
                  }
                }
              }
            }
          }
        }
      }
    }
  }
  JOINT lThigh
  {
    OFFSET 8.367 -8.2066 0.5982
    CHANNELS 3 Zrotation Xrotation Yrotation
    JOINT lShin
    {
      OFFSET 2.1923 -43.463 -0.4932
      CHANNELS 3 Zrotation Xrotation Yrotation
      JOINT lFoot
      {
        OFFSET 0.7333 -45.8593 -2.6451
        CHANNELS 3 Zrotation Xrotation Yrotation
        End Site
        {
          OFFSET 2.6618 -4.2699 12.3931
        }
      }
    }
  }
  JOINT rThigh
  {
    OFFSET -8.367 -8.2066 0.5982
    CHANNELS 3 Zrotation Xrotation Yrotation
    JOINT rShin
    {
      OFFSET -2.1923 -43.463 -0.4931
      CHANNELS 3 Zrotation Xrotation Yrotation
      JOINT rFoot
      {
        OFFSET -0.7333 -45.8593 -2.6451
        CHANNELS 3 Zrotation Xrotation Yrotation
        End Site
        {
          OFFSET -2.6618 -4.2699 12.3931
        }
      }
    }
  }
}
MOTION
Frames:	4
Frame Time:	0.0333333
0 91.7903 2.51682 0 0 -0 0 0 -0 0 0 -0 0 0 -0 0 0 -0 0 0 -0 0 0 -0 1.66051 0.0835086 5.75766 -0.0175111 0.895433 15.7816 7.95139e-016 -1.98785e-016 -0 5.46658e-016 -3.97569e-016 -0 5.96354e-016 0 -0 3.97569e-016 1.98785e-016 9.54166e-015 1.49089e-016 -3.97569e-016 -0 6.4605e-016 0 3.18055e-015 5.96354e-016 0 3.18055e-015 8.94531e-016 -1.98785e-016 6.36111e-015 6.4605e-016 0 3.18055e-015 5.96354e-016 0 3.18055e-015 8.94531e-016 -1.98785e-016 6.36111e-015 1.49089e-016 -3.97569e-016 -0 6.4605e-016 0 3.18055e-015 5.96354e-016 0 3.18055e-015 8.94531e-016 -1.98785e-016 6.36111e-015 6.4605e-016 0 3.18055e-015 5.96354e-016 0 3.18055e-015 8.94531e-016 -1.98785e-016 6.36111e-015 0 0 -0 -1.4496 0.0636048 -5.0245 -1.74811 1.20616 -16.8394 -1.19271e-015 1.98785e-016 -3.18055e-015 -3.97569e-016 1.98785e-016 -3.18055e-015 -2.98177e-016 1.98785e-016 -3.18055e-015 -2.98177e-016 3.97569e-016 -0 4.96962e-016 0 -6.36111e-015 -9.93923e-017 3.97569e-016 -0 -8.94531e-016 5.96354e-016 -0 -3.97569e-016 3.97569e-016 -0 -9.93923e-017 3.97569e-016 -0 -8.94531e-016 5.96354e-016 -0 -3.97569e-016 3.97569e-016 -0 4.96962e-016 0 -6.36111e-015 -9.93923e-017 3.97569e-016 -0 -8.94531e-016 5.96354e-016 -0 -3.97569e-016 3.97569e-016 -0 -9.93923e-017 3.97569e-016 -0 -8.94531e-016 5.96354e-016 -0 -3.97569e-016 3.97569e-016 -0 -4.66111 -0.998717 0.12318 0.00986924 1.54847 0.176523 4.65186 -0.572283 -0.254274 4.66111 -0.998765 -0.123176 -0.00986867 1.54869 -0.176537 -4.65186 -0.572453 0.25427 
26.3091 17.1539 32.6833 133.331 43.6931 -9.52376e-007 -0.0150456 4.74599 -0.0645452 -0.0248029 9.492 -0.128506 -0.0248064 9.49199 -0.128499 9.30095e-005 10.3681 -4.02731e-005 3.62677e-006 0.0997345 5.13469e-006 -31.019 -2.75213 1.12489 3.31797 41.0308 5.36304 3.79827 27.4681 11.4561 4.78027 9.351 -4.46042 -1.59028e-015 3.18055e-015 3.18055e-015 -1.76556e-031 3.18055e-015 3.18055e-015 3.18055e-015 -3.18055e-015 1.59028e-015 -1.59028e-015 3.18055e-015 1.59028e-015 -0 0 9.54166e-015 -0 0 3.18055e-015 1.59028e-015 -6.36111e-015 -1.59028e-015 -0 0 9.54166e-015 -0 0 3.18055e-015 1.59028e-015 -6.36111e-015 -1.59028e-015 -1.59028e-015 3.18055e-015 1.59028e-015 -0 0 9.54166e-015 -0 0 3.18055e-015 1.59028e-015 -6.36111e-015 -1.59028e-015 -0 0 9.54166e-015 -0 0 3.18055e-015 1.59028e-015 -6.36111e-015 -1.59028e-015 30.6526 -2.77566 -0.998015 -2.96622 41.1053 -4.94823 -5.55667 27.6529 -11.6746 -4.80576 9.23306 4.76128 3.97569e-015 -6.36111e-015 3.18055e-015 1.11319e-014 0 -6.36111e-015 -7.95139e-015 -6.36111e-015 -0 5.56597e-015 3.18055e-015 6.36111e-015 6.36111e-015 0 -1.59028e-015 7.95139e-016 0 -1.59028e-015 6.36111e-015 0 -7.95139e-015 6.36111e-015 0 -1.59028e-015 7.95139e-016 0 -1.59028e-015 6.36111e-015 0 -7.95139e-015 5.56597e-015 3.18055e-015 6.36111e-015 6.36111e-015 0 -1.59028e-015 7.95139e-016 0 -1.59028e-015 6.36111e-015 0 -7.95139e-015 6.36111e-015 0 -1.59028e-015 7.95139e-016 0 -1.59028e-015 6.36111e-015 0 -7.95139e-015 5.2333 -56.4531 34.4479 71.5011 61.1764 -74.4183 18.6585 -0.200823 4.40374 -3.20679 -51.7677 -35.0604 -85.4331 66.7184 104.393 -4.51428 -0.957535 -4.90643 
45.997 -7.26919 45.8446 -166.669 63.358 2.58909e-007 -0.0226988 7.02047 -0.0932253 -0.0341719 14.0409 -0.18572 -0.0341709 14.0409 -0.185733 7.1242e-006 15.0338 8.83681e-006 -6.24443e-007 0.144617 1.34059e-006 -43.8598 -4.0955 1.49102 3.05185 59.4528 5.23626 7.54437 39.1377 7.49574 7.21715 12.8818 -6.38035 8.92339e-007 -1.48483e-006 4.16978e-008 -8.03723e-007 -2.45239e-007 -1.50129e-007 8.92339e-007 -1.48483e-006 4.16977e-008 5.29669e-031 -9.54166e-015 3.18055e-015 8.92339e-007 -1.48483e-006 4.16978e-008 -8.03723e-007 -2.45239e-007 -1.50129e-007 8.92339e-007 -1.48483e-006 4.16977e-008 8.92339e-007 -1.48483e-006 4.16978e-008 -8.03723e-007 -2.45239e-007 -1.50129e-007 8.92339e-007 -1.48483e-006 4.16977e-008 5.29669e-031 -9.54166e-015 3.18055e-015 8.92339e-007 -1.48483e-006 4.16978e-008 -8.03723e-007 -2.45239e-007 -1.50129e-007 8.92339e-007 -1.48483e-006 4.16977e-008 8.92339e-007 -1.48483e-006 4.16978e-008 -8.03723e-007 -2.45239e-007 -1.50129e-007 8.92339e-007 -1.48483e-006 4.16977e-008 43.3433 -4.13085 -1.31074 -2.41073 59.5653 -5.14973 -9.46239 39.2244 -7.28068 -7.26335 12.7072 6.80369 4.77083e-015 3.18055e-015 -6.36111e-015 3.55101e-006 7.65096e-007 1.13592e-006 3.18055e-015 9.54166e-015 -0 4.77083e-015 3.18055e-015 -6.36111e-015 -1.59028e-015 -3.18055e-015 -3.18055e-015 3.55101e-006 7.65096e-007 1.13592e-006 -3.18055e-015 1.27222e-014 -0 -1.59028e-015 -3.18055e-015 -3.18055e-015 3.55101e-006 7.65096e-007 1.13592e-006 -3.18055e-015 1.27222e-014 -0 4.77083e-015 3.18055e-015 -6.36111e-015 -1.59028e-015 -3.18055e-015 -3.18055e-015 3.55101e-006 7.65096e-007 1.13592e-006 -3.18055e-015 1.27222e-014 -0 -1.59028e-015 -3.18055e-015 -3.18055e-015 3.55101e-006 7.65096e-007 1.13592e-006 -3.18055e-015 1.27222e-014 -0 51.4209 -66.7327 88.6844 129.532 39.9158 -118.461 27.379 -1.22776 8.67264 -31.547 -63.5061 -71.4541 -120.916 35.5164 133.702 -3.05473 3.32812 -7.28976 
42.231 -2.6052 42.8848 179.997 58.9947 3.2456e-011 -0.0220193 6.82421 -0.08646 -0.0339455 13.6485 -0.17211 -0.0339455 13.6485 -0.17211 6.82941e-006 13.9961 -1.04541e-006 -9.93534e-008 0.134642 1.72943e-008 -38.5988 -4.03441 1.09486 1.15479 55.3534 5.32691 7.22866 36.4295 7.08028 6.23194 11.0958 -5.12819 -8.50826e-007 1.04909e-006 -1.60955e-006 -8.57831e-007 -2.65247e-008 -1.97657e-006 -6.57346e-007 2.23804e-007 -1.54929e-006 7.95139e-016 4.77083e-015 3.18055e-015 -8.50826e-007 1.04909e-006 -1.60955e-006 -8.57831e-007 -2.65247e-008 -1.97657e-006 -6.57346e-007 2.23804e-007 -1.54929e-006 -8.50826e-007 1.04909e-006 -1.60955e-006 -8.57831e-007 -2.65247e-008 -1.97657e-006 -6.57346e-007 2.23804e-007 -1.54929e-006 7.95139e-016 4.77083e-015 3.18055e-015 -8.50826e-007 1.04909e-006 -1.60955e-006 -8.57831e-007 -2.65247e-008 -1.97657e-006 -6.57346e-007 2.23804e-007 -1.54929e-006 -8.50826e-007 1.04909e-006 -1.60955e-006 -8.57831e-007 -2.65247e-008 -1.97657e-006 -6.57346e-007 2.23804e-007 -1.54929e-006 38.1402 -4.06944 -0.935171 -0.613308 55.4501 -5.13268 -9.08999 36.5097 -6.98721 -6.26697 10.9549 5.49527 -1.19271e-015 -1.59028e-015 -3.18055e-015 -7.95139e-016 -7.95139e-016 -3.18055e-015 1.98785e-015 -1.59028e-015 -3.18055e-015 -1.19271e-015 -1.59028e-015 -3.18055e-015 -3.97569e-016 -7.95139e-016 -3.18055e-015 7.95139e-016 7.95139e-016 -3.18055e-015 -2.38542e-015 4.77083e-015 3.18055e-015 -3.97569e-016 -7.95139e-016 -3.18055e-015 7.95139e-016 7.95139e-016 -3.18055e-015 -2.38542e-015 4.77083e-015 3.18055e-015 -1.19271e-015 -1.59028e-015 -3.18055e-015 -3.97569e-016 -7.95139e-016 -3.18055e-015 7.95139e-016 7.95139e-016 -3.18055e-015 -2.38542e-015 4.77083e-015 3.18055e-015 -3.97569e-016 -7.95139e-016 -3.18055e-015 7.95139e-016 7.95139e-016 -3.18055e-015 -2.38542e-015 4.77083e-015 3.18055e-015 38.7554 -67.476 74.8416 121.954 46.1171 -114.78 25.7697 -0.945483 7.92265 -23.7992 -62.3312 -62.4336 -117.358 42.951 132.104 -3.87097 2.31869 -6.57147 
